<svg version="1.1" id="Layer_1" xmlns="http://www.w3.org/2000/svg" xmlns:xlink="http://www.w3.org/1999/xlink" x="0px" y="0px"
	 width="100%" viewBox="0 0 1024 1024" enable-background="new 0 0 1024 1024" xml:space="preserve">
<path fill="#000000" opacity="1.000000" stroke="none" 
	d="
M745.156494,257.151917 
	C768.841187,235.876678 790.224915,212.913757 809.612000,188.123032 
	C811.575623,189.535751 810.431213,190.600250 809.995728,191.468781 
	C783.604553,244.110016 752.297852,293.474518 712.762024,337.363983 
	C710.554871,339.814240 708.025757,341.293335 704.997131,342.475098 
	C670.398682,355.975006 635.675415,369.226746 604.397095,389.793243 
	C580.050964,405.801666 558.855652,425.010437 543.209961,449.878723 
	C542.618896,450.818115 542.198669,452.060852 539.738708,451.943115 
	C541.861023,447.252808 543.761902,442.807465 545.859436,438.456940 
	C557.753845,413.786438 572.899536,391.395416 592.875366,372.511688 
	C607.699524,358.497894 624.585022,347.141205 641.427795,335.771698 
	C677.344971,311.526306 712.489502,286.269257 745.156494,257.151917 
z"/>
<path fill="#000000" opacity="1.000000" stroke="none" 
	d="
M275.356812,251.642212 
	C309.849274,283.275085 347.386322,310.355652 385.770691,336.337006 
	C403.708740,348.478851 421.710480,360.570068 437.161194,375.924042 
	C458.251862,396.882690 473.468567,421.795349 485.660950,448.701538 
	C486.111084,449.694855 486.929962,450.727661 485.597015,452.475800 
	C483.714325,449.793488 481.942627,447.290070 480.192078,444.771942 
	C462.665985,419.561310 439.890594,400.167542 413.717773,384.458710 
	C389.191986,369.738525 362.934692,358.759064 336.460907,348.218658 
	C330.892029,346.001434 325.338654,343.739807 319.719177,341.657684 
	C317.260254,340.746613 315.455353,339.149445 313.772430,337.270905 
	C277.869263,297.194946 248.730103,252.508255 223.679535,205.041214 
	C221.039597,200.038956 218.644119,194.907394 216.169296,189.819244 
	C216.061768,189.598190 216.296753,189.210556 216.696472,187.567520 
	C234.580093,211.028015 254.413406,231.614944 275.356812,251.642212 
z"/>
<path fill="#000000" opacity="1.000000" stroke="none" 
	d="
M528.504517,493.618896 
	C533.340027,480.493134 538.155579,467.785370 544.501404,455.765442 
	C546.888184,456.563965 546.145447,458.129456 546.101624,459.295654 
	C545.283508,481.047668 546.937744,502.552155 552.576660,523.643677 
	C553.199829,525.974487 552.663879,527.815552 551.599365,529.802368 
	C533.100525,564.329163 521.157471,601.035583 515.121948,639.703857 
	C514.845154,641.477173 514.327271,643.212891 513.778259,645.585999 
	C510.992523,641.878967 511.493835,637.916077 510.860138,634.381836 
	C504.317688,597.893494 493.064270,563.029358 475.542114,530.278748 
	C474.515991,528.360901 473.602844,526.550110 474.236664,524.153870 
	C479.902161,502.733276 481.741669,480.915863 480.809509,458.822906 
	C480.770172,457.890594 480.443542,456.801666 482.624268,455.413666 
	C498.409088,491.038513 512.007263,526.900757 514.104492,566.306946 
	C514.104492,560.205566 513.582520,554.046265 514.250610,548.018921 
	C514.924744,541.937439 516.707092,535.969360 518.137207,529.983521 
	C519.606018,523.835999 521.103088,517.689209 522.833496,511.612030 
	C524.519165,505.691711 526.515930,499.859955 528.504517,493.618896 
z"/>
<path fill="#000000" opacity="1.000000" stroke="none" 
	d="
M662.059204,437.110291 
	C638.795532,453.479034 615.038269,468.219543 588.501343,478.580322 
	C588.089600,475.771454 589.967712,475.596466 591.089722,474.882446 
	C623.978271,453.952667 651.419128,427.850372 669.176880,392.583527 
	C670.478149,389.999176 672.436768,388.584198 674.942322,387.423798 
	C697.599976,376.930634 720.405212,366.724365 741.923279,353.954224 
	C745.563293,351.794037 749.074585,349.417053 753.164734,347.764099 
	C727.372314,382.088165 696.996338,411.662598 662.059204,437.110291 
z"/>
<path fill="#000000" opacity="1.000000" stroke="none" 
	d="
M305.786560,386.199585 
	C294.042999,374.028076 283.178009,361.581482 273.196564,348.484894 
	C274.210266,347.408386 274.879730,347.614868 275.429993,347.987366 
	C298.428070,363.557129 323.791016,374.604340 348.838898,386.229431 
	C353.112213,388.212769 356.102234,390.754059 358.377350,395.023071 
	C376.032349,428.150452 401.672058,453.754486 433.315491,473.588745 
	C434.864258,474.559479 436.407837,475.542206 437.903900,476.590515 
	C438.245148,476.829590 438.379089,477.364563 438.260376,478.208313 
	C387.406860,457.408997 344.304077,425.432953 305.786560,386.199585 
z"/>
<path fill="#000000" opacity="1.000000" stroke="none" 
	d="
M625.866394,421.871338 
	C613.821411,434.920288 597.972229,440.056061 582.096191,445.135529 
	C578.040405,446.433167 573.969910,447.684906 569.667419,449.032532 
	C573.475464,435.849518 614.745178,409.552887 642.066162,404.203400 
	C636.749451,410.009277 631.432800,415.815155 625.866394,421.871338 
z"/>
<path fill="#000000" opacity="1.000000" stroke="none" 
	d="
M716.356812,746.648315 
	C708.540405,738.425720 701.087830,730.333191 693.374268,722.497620 
	C689.690918,718.756042 689.932495,714.725098 690.829468,710.362366 
	C704.076843,722.741394 717.119385,734.929016 730.246460,747.195679 
	C731.438782,746.027100 730.700867,743.924011 730.718323,742.069763 
	C730.807678,732.570801 730.783386,723.070557 730.743469,713.570984 
	C730.732117,710.880615 731.852600,709.648315 734.626404,709.627869 
	C737.384521,709.607605 739.174438,710.338379 739.165222,713.476746 
	C739.113708,730.973511 739.089172,748.470337 739.025330,765.967041 
	C739.023743,766.411865 738.676880,766.855347 738.170776,768.064819 
	C729.805786,761.905945 723.992310,753.557861 716.356812,746.648315 
z"/>
<path fill="#000000" opacity="1.000000" stroke="none" 
	d="
M423.790314,419.131256 
	C437.047211,426.744629 447.128204,437.430756 457.347382,447.972626 
	C427.862854,442.333618 402.589783,430.011810 384.835144,402.585815 
	C398.493958,408.492310 411.584412,412.178223 423.790314,419.131256 
z"/>
<path fill="#000000" opacity="1.000000" stroke="none" 
	d="
M307.077698,716.018677 
	C302.281158,717.336121 299.311066,719.734924 299.228333,724.769470 
	C299.143921,729.906738 302.823700,731.465027 306.685822,732.840698 
	C310.757385,734.290894 314.923096,735.487183 318.955505,737.034668 
	C327.529236,740.325073 331.271912,745.721802 330.621979,753.506958 
	C329.964020,761.388062 324.445984,767.407654 315.884552,768.787598 
	C310.744293,769.616028 305.416534,770.049133 300.170074,767.156738 
	C302.347107,763.855896 304.738770,762.083496 308.546967,762.578064 
	C310.675568,762.854553 312.838135,762.791809 314.966431,762.117737 
	C319.387146,760.717529 322.231659,757.817139 322.512207,753.210205 
	C322.791809,748.618713 319.927704,745.846191 315.796448,744.373169 
	C310.944031,742.643005 305.965240,741.234741 301.204102,739.288574 
	C293.641113,736.197144 290.092529,730.468811 290.938782,723.460693 
	C291.760986,716.651855 297.418427,711.035583 304.827026,709.669312 
	C310.287048,708.662476 315.623047,708.765015 321.133423,711.245300 
	C318.864655,714.723450 316.463165,716.733948 312.365051,715.581665 
	C310.751068,715.127869 309.058502,715.342712 307.077698,716.018677 
z"/>
<path fill="#000000" opacity="1.000000" stroke="none" 
	d="
M533.595703,767.920288 
	C528.160400,769.223938 524.580261,767.349915 521.300659,763.212402 
	C514.713440,754.902100 507.599274,747.009460 500.586151,738.808289 
	C503.079041,736.228577 505.704773,737.129089 508.030029,736.989136 
	C511.184753,736.799194 514.365906,737.031799 517.518005,736.819153 
	C523.346680,736.425903 527.455078,732.343811 527.603699,727.041199 
	C527.760498,721.446594 523.878357,717.002258 517.750122,716.478333 
	C512.952026,716.068176 508.096161,716.230896 503.268402,716.303345 
	C499.259521,716.363586 496.851593,714.351440 494.976593,710.518738 
	C498.249359,709.161499 501.407196,709.694275 504.431946,709.752563 
	C510.242035,709.864624 516.105103,709.005920 521.857361,710.374084 
	C531.450562,712.655762 536.026367,718.828186 535.344360,728.421875 
	C534.800049,736.079102 528.229797,742.285767 519.635742,743.266174 
	C518.511414,743.394409 517.389343,743.541809 515.176819,743.814697 
	C520.485962,750.008667 525.361389,755.541748 530.037476,761.238403 
	C531.622498,763.169373 534.365601,764.539368 533.595703,767.920288 
z"/>
<path fill="#000000" opacity="1.000000" stroke="none" 
	d="
M409.269470,768.082153 
	C406.723541,767.016418 406.896454,765.067871 406.896057,763.261658 
	C406.892639,747.448425 406.942505,731.635132 406.918488,715.821960 
	C406.913849,712.783508 407.457397,710.674622 411.264709,710.729309 
	C415.219757,710.786072 415.321564,713.206787 415.316071,716.078857 
	C415.286285,731.725586 415.197723,747.373657 415.372711,763.018494 
	C415.420746,767.311829 413.712921,768.779480 409.269470,768.082153 
z"/>
<path fill="#000000" opacity="1.000000" stroke="none" 
	d="
M610.819336,745.999939 
	C610.834106,735.676636 610.867371,725.853210 610.853333,716.029846 
	C610.849182,713.135010 611.077087,710.748352 614.999329,710.726685 
	C618.778259,710.705811 619.323486,712.764465 619.311707,715.835205 
	C619.251221,731.652405 619.246216,747.470154 619.315308,763.287292 
	C619.329041,766.429443 618.622620,768.346252 614.915161,768.312866 
	C611.382629,768.281006 610.807007,766.325134 610.828857,763.482666 
	C610.872437,757.822144 610.827820,752.160828 610.819336,745.999939 
z"/>
<path fill="#000000" opacity="1.000000" stroke="none" 
	d="
M698.289673,742.126038 
	C698.289978,749.597839 698.243286,756.590820 698.316467,763.582642 
	C698.346924,766.495178 697.653442,768.339355 694.188965,768.366455 
	C690.670044,768.394104 690.015076,766.421814 690.044250,763.585754 
	C690.161987,752.139465 689.640259,740.673096 690.984009,728.767151 
	C696.504700,731.677979 699.093811,735.683289 698.289673,742.126038 
z"/>
</svg>