<svg version="1.1" id="Layer_1" xmlns="http://www.w3.org/2000/svg" xmlns:xlink="http://www.w3.org/1999/xlink" x="0px" y="0px"
	 width="100%" viewBox="0 0 1024 768" enable-background="new 0 0 1024 768" xml:space="preserve">
<path fill="#000000" opacity="1.000000" stroke="none" 
	d="
M937.858276,94.797508 
	C909.311584,146.010941 876.916504,194.187744 840.103882,239.358749 
	C832.533081,248.648422 824.438232,257.511475 816.570007,266.558136 
	C812.842773,270.843628 807.870728,273.105255 802.729736,275.178284 
	C773.861694,286.818787 744.617981,297.529083 716.386963,310.740906 
	C680.624268,327.477448 646.790649,347.283295 616.585083,372.870453 
	C596.007996,390.301453 578.131592,410.185669 563.713928,433.071075 
	C562.272217,435.359528 561.146301,438.204407 557.622131,437.855835 
	C556.385254,435.889282 557.639038,434.461670 558.248169,433.019043 
	C584.865784,369.978149 625.913086,318.857117 682.999146,280.642090 
	C735.878357,245.243240 788.284119,209.136383 837.367920,168.505997 
	C875.298950,137.107559 910.555908,102.964828 942.052612,65.036873 
	C948.411438,57.379543 954.784302,49.733780 961.193604,42.031033 
	C964.779785,44.009979 963.349976,46.291290 962.279297,48.525883 
	C954.790894,64.155357 946.228882,79.218689 937.858276,94.797508 
z"/>
<path fill="#000000" opacity="1.000000" stroke="none" 
	d="
M370.315918,294.655762 
	C419.505829,330.821442 452.496613,378.968506 476.913452,433.671051 
	C477.511932,435.011810 477.698303,436.600800 476.074646,437.686890 
	C473.987152,437.664185 473.397858,435.852539 472.545288,434.568848 
	C438.591095,383.444672 391.760773,347.586578 337.572845,320.346375 
	C303.602417,303.269501 268.459137,288.948059 232.999237,275.367279 
	C225.996216,272.685181 220.119766,269.050018 215.057281,263.324036 
	C169.835968,212.176285 131.761871,156.053955 98.234207,96.718521 
	C89.382416,81.053101 81.085266,65.102333 73.026192,49.022968 
	C71.882782,46.741650 70.247307,44.373272 72.321358,41.739994 
	C74.730927,41.998035 75.415474,43.944653 76.481972,45.304569 
	C115.528053,95.093430 160.314316,139.109268 209.656113,178.644791 
	C252.729507,213.157715 297.959442,244.636047 343.720154,275.408630 
	C352.697174,281.445435 361.271973,288.080383 370.315918,294.655762 
z"/>
<path fill="#000000" opacity="1.000000" stroke="none" 
	d="
M496.587891,503.561890 
	C506.165527,531.869324 514.331482,560.118042 517.247192,589.039001 
	C519.986450,565.564575 526.593018,542.441284 533.291260,519.377075 
	C540.452271,494.719299 549.950256,470.911896 561.061401,447.763916 
	C561.886658,446.044617 562.059204,442.853394 565.079590,443.638428 
	C567.752075,444.333069 567.258301,447.069824 567.193970,449.183289 
	C566.687134,465.841736 566.680359,482.501099 568.404114,499.087555 
	C569.847412,512.975708 571.895996,526.827454 575.877686,540.230164 
	C577.807678,546.726868 576.791199,552.248230 573.658997,557.892883 
	C564.595032,574.227295 557.085449,591.307312 550.254883,608.657837 
	C537.417480,641.266479 528.306946,674.938904 522.254883,709.458252 
	C521.242432,715.233398 520.808777,721.221008 518.062317,727.092651 
	C514.671753,724.612305 514.254395,721.216797 513.843384,718.084778 
	C510.541809,692.925781 504.248322,668.469482 496.956757,644.222534 
	C487.669067,613.337891 475.236603,583.761353 460.319275,555.204712 
	C458.315063,551.367920 457.517273,547.634155 458.675201,543.246643 
	C466.512238,513.551819 468.750702,483.269348 467.872650,452.670471 
	C467.777039,449.338196 466.729004,445.545807 471.389465,442.599304 
	C481.372070,462.265076 488.826508,482.766205 496.587891,503.561890 
z"/>
<path fill="#000000" opacity="1.000000" stroke="none" 
	d="
M756.678162,403.718323 
	C726.641113,426.871399 695.192993,447.142639 661.633545,464.067719 
	C652.717590,468.564301 643.647034,472.755249 634.315796,476.346527 
	C633.088074,476.818970 631.894226,477.498840 630.160950,476.932068 
	C628.913696,473.583679 631.604370,472.446411 633.740479,471.081329 
	C651.740784,459.577942 668.875977,446.908508 684.817871,432.686371 
	C710.923035,409.397247 732.437439,382.449738 748.549561,351.338745 
	C751.560608,345.524689 755.917297,341.740356 761.752258,339.075806 
	C798.270996,322.399567 834.666138,305.471130 869.029175,284.547150 
	C872.588318,282.379974 872.876038,282.377380 877.473816,281.820953 
	C842.352112,328.228821 802.380310,368.537262 756.678162,403.718323 
z"/>
<path fill="#000000" opacity="1.000000" stroke="none" 
	d="
M321.090515,403.913483 
	C345.173279,432.707703 374.495911,454.857880 405.919159,474.750122 
	C403.324127,477.559174 401.807190,476.324707 400.392426,475.725098 
	C365.470154,460.924194 332.420807,442.720215 301.336578,420.980835 
	C251.621399,386.211456 207.810760,345.053680 169.058762,298.447449 
	C165.546265,294.222992 162.231537,289.832825 158.874100,285.481689 
	C158.085754,284.460022 156.948242,283.262939 157.977753,281.924103 
	C159.202759,280.331085 160.631805,281.244141 161.956970,282.046112 
	C170.786102,287.389313 179.533615,292.874542 188.471848,298.028900 
	C214.190247,312.859650 241.362656,324.763733 268.250916,337.219513 
	C276.583771,341.079651 282.900146,346.491760 287.299713,354.710144 
	C296.676666,372.226318 307.979370,388.494751 321.090515,403.913483 
z"/>
<path fill="#000000" opacity="1.000000" stroke="none" 
	d="
M652.974487,416.101501 
	C636.499634,423.401855 619.672852,428.438629 602.420959,433.438812 
	C601.614685,430.257935 603.208801,428.481201 604.482971,426.661957 
	C612.780212,414.815521 624.424133,406.701660 636.134949,398.767822 
	C656.655090,384.865814 678.784424,374.216949 702.516296,366.969971 
	C705.681641,366.003387 706.656189,365.946167 710.637329,366.394379 
	C693.291138,385.557983 678.006226,406.087372 652.974487,416.101501 
z"/>
<path fill="#000000" opacity="1.000000" stroke="none" 
	d="
M394.082764,421.067108 
	C364.899780,409.286072 341.654358,390.924744 324.144073,363.641022 
	C366.952515,376.865479 405.207764,394.932373 432.719513,431.496613 
	C419.226257,429.899017 406.756775,425.864624 394.082764,421.067108 
z"/>
</svg>