<svg xmlns="http://www.w3.org/2000/svg" viewBox="0 0 385 377" role="img" aria-labelledby="title">
  <title>SIRIN full logo</title>
  <g fill="#000000">
    <path d="M 10.0 10.0 L 36.0 56.0 L 55.0 82.0 L 70.0 99.0 L 102.0 111.0 L 136.0 129.0 L 155.0 144.0 L 172.0 163.0 L 156.0 135.0 L 136.0 114.0 L 87.0 80.0 L 56.0 56.0 Z"/>
    <path d="M 374.0 10.0 L 337.0 48.0 L 323.0 60.0 L 249.0 113.0 L 225.0 139.0 L 212.0 163.0 L 231.0 142.0 L 248.0 129.0 L 273.0 115.0 L 314.0 99.0 L 332.0 78.0 L 350.0 53.0 Z"/>
    <path d="M 45.0 106.0 L 52.0 116.0 L 86.0 149.0 L 114.0 169.0 L 137.0 181.0 L 108.0 154.0 L 93.0 130.0 Z"/>
    <path d="M 339.0 106.0 L 291.0 130.0 L 275.0 155.0 L 246.0 181.0 L 268.0 170.0 L 299.0 148.0 L 330.0 118.0 Z"/>
    <path d="M 115.0 140.0 L 115.0 142.0 L 130.0 156.0 L 154.0 165.0 L 137.0 149.0 Z"/>
    <path d="M 269.0 140.0 L 247.0 149.0 L 231.0 162.0 L 230.0 165.0 L 254.0 156.0 L 269.0 142.0 Z"/>
    <path d="M 212.0 173.0 L 203.0 191.0 L 193.0 228.0 L 192.0 255.0 L 189.0 218.0 L 182.0 194.0 L 173.0 175.0 L 172.0 197.0 L 168.0 216.0 L 182.0 246.0 L 189.0 270.0 L 191.0 284.0 L 193.0 284.0 L 194.0 274.0 L 203.0 243.0 L 216.0 216.0 L 212.0 196.0 Z"/>
    <path d="M 62.0 330.0 L 55.0 334.0 L 54.0 343.0 L 58.0 347.0 L 68.0 350.0 L 73.0 354.0 L 73.0 360.0 L 66.0 364.0 L 62.0 363.0 L 60.0 365.0 L 69.0 366.0 L 76.0 361.0 L 77.0 353.0 L 74.0 349.0 L 58.0 342.0 L 57.0 338.0 L 61.0 333.0 L 70.0 332.0 L 69.0 330.0 Z"/>
    <path d="M 181.0 330.0 L 184.0 333.0 L 196.0 333.0 L 201.0 337.0 L 202.0 340.0 L 199.0 346.0 L 186.0 349.0 L 200.0 366.0 L 204.0 366.0 L 192.0 351.0 L 200.0 349.0 L 204.0 345.0 L 204.0 335.0 L 195.0 330.0 Z"/>
    <path d="M 303.0 331.0 L 303.0 335.0 L 332.0 364.0 L 332.0 330.0 L 329.0 330.0 L 328.0 356.0 Z"/>
    <path d="M 130.0 331.0 L 126.0 331.0 L 127.0 366.0 L 130.0 365.0 Z"/>
    <path d="M 257.0 331.0 L 254.0 331.0 L 254.0 366.0 L 257.0 365.0 Z"/>
    <path d="M 303.0 343.0 L 303.0 365.0 L 307.0 365.0 L 307.0 346.0 Z"/>
  </g>
</svg>