<svg xmlns="http://www.w3.org/2000/svg" viewBox="0 0 299 57" role="img" aria-labelledby="title">
  <title>SIRIN wordmark only</title>
  <g fill="#000000">
    <path d="M 18.0 10.0 L 11.0 14.0 L 10.0 23.0 L 14.0 27.0 L 24.0 30.0 L 29.0 34.0 L 29.0 40.0 L 22.0 44.0 L 18.0 43.0 L 16.0 45.0 L 25.0 46.0 L 32.0 41.0 L 33.0 33.0 L 30.0 29.0 L 14.0 22.0 L 13.0 18.0 L 17.0 13.0 L 26.0 12.0 L 25.0 10.0 Z"/>
    <path d="M 137.0 10.0 L 140.0 13.0 L 152.0 13.0 L 157.0 17.0 L 158.0 20.0 L 155.0 26.0 L 142.0 29.0 L 156.0 46.0 L 160.0 46.0 L 148.0 31.0 L 156.0 29.0 L 160.0 25.0 L 160.0 15.0 L 151.0 10.0 Z"/>
    <path d="M 259.0 11.0 L 259.0 15.0 L 288.0 44.0 L 288.0 10.0 L 285.0 10.0 L 284.0 36.0 Z"/>
    <path d="M 86.0 11.0 L 82.0 11.0 L 83.0 46.0 L 86.0 45.0 Z"/>
    <path d="M 213.0 11.0 L 210.0 11.0 L 210.0 46.0 L 213.0 45.0 Z"/>
    <path d="M 259.0 23.0 L 259.0 45.0 L 263.0 45.0 L 263.0 26.0 Z"/>
  </g>
</svg>