<svg version="1.1" id="Layer_1" xmlns="http://www.w3.org/2000/svg" xmlns:xlink="http://www.w3.org/1999/xlink" x="0px" y="0px"
	 width="100%" viewBox="0 0 1008 240" enable-background="new 0 0 1008 240" xml:space="preserve">
<path fill="#000000" opacity="1.000000" stroke="none" 
	d="
M862.987915,107.998611 
	C863.226196,98.184921 862.534607,88.862518 863.431580,79.548523 
	C863.854614,75.156555 866.274902,73.445862 870.338989,73.367416 
	C874.609192,73.284988 877.134033,74.882141 877.596680,79.613609 
	C878.412109,87.952850 877.493896,96.234512 877.423523,104.542061 
	C877.265503,123.194771 877.376038,141.849640 877.321167,160.503494 
	C877.315552,162.417572 878.093750,164.898911 875.961426,165.980453 
	C873.791870,167.080933 872.276184,164.950806 870.891602,163.698746 
	C866.942444,160.127518 863.040039,156.485687 859.352051,152.647888 
	C841.241699,133.801926 823.212830,114.877724 805.142517,95.993248 
	C798.651428,89.209740 796.995789,81.881386 800.919983,74.729622 
	C821.487122,93.944756 841.923889,113.038101 862.360657,132.131454 
	C862.830811,131.967560 863.300964,131.803665 863.771118,131.639771 
	C863.032349,123.922241 862.890076,116.209312 862.987915,107.998611 
z"/>
<path fill="#000000" opacity="1.000000" stroke="none" 
	d="
M204.117065,115.692490 
	C206.634308,116.709961 208.788818,117.600883 210.911423,118.562271 
	C220.971436,123.118736 226.688080,130.621994 226.278625,141.971603 
	C225.859756,153.581360 220.287308,162.151245 209.503540,166.347382 
	C199.035248,170.420746 188.223587,171.104446 177.637482,166.071503 
	C179.258636,160.541550 182.972626,157.770142 188.718231,157.686874 
	C193.370056,157.619431 198.002243,157.910721 202.476883,156.012802 
	C208.590164,153.419815 212.262436,148.543106 212.206909,142.243362 
	C212.153076,136.138992 208.736725,132.308228 203.289322,130.253006 
	C195.198212,127.200333 186.997849,124.437775 178.900848,121.400116 
	C167.913818,117.278206 161.648743,108.895569 161.721024,98.696259 
	C161.794922,88.269699 168.597443,78.487892 179.164276,74.814270 
	C188.495560,71.570190 198.089859,71.448120 207.598709,74.571976 
	C208.720078,74.940376 209.834061,75.260788 210.467896,76.376022 
	C207.440277,82.773193 203.395569,84.889755 196.535706,83.774254 
	C190.576324,82.805176 185.215698,84.621880 180.697266,88.260162 
	C173.762283,93.844276 174.988831,104.416779 183.127930,108.054535 
	C189.791306,111.032722 196.853989,113.117538 204.117065,115.692490 
z"/>
<path fill="#000000" opacity="1.000000" stroke="none" 
	d="
M528.138245,157.830490 
	C517.504517,145.243057 507.100189,132.930801 496.700378,120.623901 
	C498.859985,117.089333 501.994965,116.759499 505.174713,116.712151 
	C511.006012,116.625313 516.849487,116.865814 522.669067,116.582367 
	C534.385132,116.011719 541.447083,106.945641 538.629700,96.398026 
	C536.945251,90.091606 531.260437,85.605988 524.214600,85.340210 
	C517.075073,85.070900 509.923309,85.133400 502.782257,84.892014 
	C496.054810,84.664597 490.371002,82.631767 487.927124,75.408752 
	C490.336334,72.744019 493.764282,72.951134 496.384857,73.186790 
	C506.689606,74.113457 516.957581,72.278503 527.289551,73.603378 
	C547.648987,76.214066 558.846497,94.817345 550.193237,112.548767 
	C546.168030,120.796936 539.099487,125.141197 530.456787,127.244850 
	C528.046692,127.831474 525.580383,128.186951 523.102051,128.655624 
	C522.515442,131.200867 524.472107,132.390213 525.662048,133.784195 
	C532.798828,142.144791 540.059387,150.399475 547.239685,158.723190 
	C548.979065,160.739532 551.172974,163.000717 549.710388,165.777939 
	C548.369446,168.324097 545.384521,167.646149 542.945374,167.565598 
	C536.200073,167.342819 532.264832,162.743317 528.138245,157.830490 
z"/>
<path fill="#000000" opacity="1.000000" stroke="none" 
	d="
M671.893188,106.000008 
	C671.998718,97.680481 671.735229,89.832794 672.328674,82.050468 
	C672.788818,76.016449 676.217285,73.942123 681.421204,75.216187 
	C685.804810,76.289429 686.409058,79.421494 686.397644,83.225243 
	C686.342590,101.542625 686.376038,119.860260 686.376709,138.177811 
	C686.376953,145.005264 686.399902,151.832840 686.363831,158.660110 
	C686.328735,165.292664 684.419189,167.639389 679.144348,167.671967 
	C674.204468,167.702469 671.947388,164.949158 671.925476,158.455154 
	C671.866943,141.136932 671.897888,123.818405 671.893188,106.000008 
z"/>
<path fill="#000000" opacity="1.000000" stroke="none" 
	d="
M346.735443,127.999969 
	C346.748138,113.030540 346.665680,98.560120 346.817078,84.092148 
	C346.886688,77.442894 349.524841,74.580956 354.604401,74.863602 
	C359.233002,75.121147 361.247437,77.382774 361.295013,82.943542 
	C361.389008,93.919571 361.317688,104.897003 361.319458,115.873856 
	C361.321777,130.177109 361.369537,144.480499 361.313293,158.783524 
	C361.291412,164.352081 359.259521,166.994278 355.093506,167.340195 
	C349.528351,167.802307 346.859528,165.410263 346.788513,159.434555 
	C346.665955,149.124268 346.742767,138.811630 346.735443,127.999969 
z"/>
<path fill="#000000" opacity="1.000000" stroke="none" 
	d="
M812.211365,162.411438 
	C810.872192,167.308411 807.454834,168.181213 803.546021,167.591064 
	C799.381348,166.962265 798.556580,163.804108 798.627991,160.142303 
	C798.971069,142.542084 797.764038,124.911064 799.688110,107.342926 
	C799.775635,106.543877 799.969299,105.756447 800.109253,104.986649 
	C805.826599,105.415260 811.232422,111.193886 812.281860,117.635925 
	C813.065430,122.446075 812.265686,127.242645 812.307251,132.045578 
	C812.393616,142.020386 812.294434,151.996811 812.211365,162.411438 
z"/>
</svg>